<svg width="24" height="24" viewBox="0 0 24 24" fill="none" xmlns="http://www.w3.org/2000/svg">
<path d="M2.86244 12L0.342606 14.5188C-0.114202 14.9784 -0.114202 15.7207 0.342606 16.1803L7.81815 23.6571C8.27768 24.1139 9.01985 24.1139 9.47938 23.6571L11.9977 21.1383L9.09206 18.2321C8.81093 17.9494 8.69179 17.5437 8.77542 17.1539L9.31002 14.6896L6.84763 15.2229C6.45755 15.3075 6.05122 15.1876 5.76959 14.9047L2.86244 12Z" fill="#00A651"/>
<path d="M15.3485 1.15972e-06C15.0367 -0.000437605 14.7377 0.12364 14.5179 0.344675L11.9995 2.86345L14.9067 5.76814C15.1888 6.05085 15.3086 6.45727 15.2248 6.84782L14.6917 9.31063L17.1555 8.77741C17.5455 8.69414 17.9512 8.81387 18.2336 9.09557L21.1392 12.0003L23.6576 9.48149C24.1144 9.02188 24.1144 8.27959 23.6576 7.81998L16.1762 0.344675C15.957 0.124364 15.6592 0.000346513 15.3485 1.15972e-06Z" fill="#9FCC3B"/>
<path d="M8.64877 1.15972e-06C8.33703 -0.000437605 8.03802 0.12364 7.81815 0.344675L0.342606 7.81998C-0.114202 8.27959 -0.114202 9.02188 0.342606 9.48149L2.86096 12.0003L5.76665 9.09557C6.04899 8.81387 6.45466 8.69414 6.84468 8.77741L9.31002 9.31063L8.77542 6.84782C8.69164 6.45727 8.81138 6.05085 9.09353 5.76814L11.9977 2.86198L9.47938 0.344675C9.25952 0.12364 8.96051 -0.000437605 8.64877 1.15972e-06Z" fill="#9FCC3B"/>
<path d="M6.59762 8.75098C6.28628 8.75112 5.98766 8.87451 5.767 9.09418L2.86279 12.0003L5.767 14.905C5.98742 15.1252 6.28607 15.2492 6.59762 15.2497C6.68081 15.25 6.76378 15.2411 6.84504 15.2232L9.31038 14.69L9.89947 12.0003L9.31038 9.3107L6.84504 8.77749C6.76376 8.75978 6.68081 8.75089 6.59762 8.75098Z" fill="#2E8810"/>
<path d="M11.9978 2.86328L9.09213 5.76797C8.81048 6.05036 8.69077 6.4561 8.77403 6.84618L9.3101 9.31046L11.9993 9.89964L14.6885 9.31046L15.2216 6.84766C15.3061 6.4576 15.1875 6.05126 14.9064 5.76797L11.9978 2.86328Z" fill="#65BC46"/>
<path d="M9.30957 9.31055L9.89866 12.0002L10.1137 11.0074C10.2119 10.5573 10.5634 10.2057 11.0135 10.1074L12.0061 9.89237L9.30957 9.31055Z" fill="#196002"/>
<path d="M21.1334 12L18.2291 14.9047C17.9475 15.1876 17.5412 15.3075 17.1511 15.2229L14.6887 14.6896L15.2218 17.1524C15.3055 17.5423 15.1863 17.948 14.9052 18.2307L11.998 21.1368L14.5164 23.6556C14.9759 24.1125 15.7181 24.1125 16.1776 23.6556L23.6532 16.1788C24.11 15.7192 24.11 14.9769 23.6532 14.5173L21.1334 12Z" fill="#9FCC3B"/>
<path d="M11.9978 14.1079L9.31008 14.6897L8.77695 17.1525C8.6937 17.5426 8.81341 17.9484 9.09506 18.2307L11.9978 21.1369L14.9064 18.2322C15.1881 17.9498 15.3078 17.5441 15.2245 17.154L14.6914 14.6912L11.9978 14.1079Z" fill="#2E8810"/>
<path d="M17.399 8.75098C17.3153 8.75078 17.2319 8.75967 17.1501 8.77749L14.6877 9.31071L14.0986 12.0003L14.6877 14.69L17.1501 15.2232C17.2318 15.2412 17.3153 15.2501 17.399 15.2497C17.7106 15.2492 18.0092 15.1252 18.2296 14.905L21.1338 12.0003L18.2296 9.09565C18.009 8.87598 17.7103 8.7526 17.399 8.75245" fill="#65BC46"/>
<path d="M14.1055 12L13.8905 12.9928C13.7925 13.4425 13.4416 13.794 12.9921 13.8928L11.998 14.1078L14.6872 14.6896L14.1055 12Z" fill="#196002"/>
<path d="M9.88982 12L9.30957 14.6896L11.9988 14.1078L11.0032 13.8928C10.5531 13.7945 10.2016 13.4429 10.1034 12.9928L9.88982 12Z" fill="#196002"/>
<path d="M14.6872 9.31055L11.998 9.89973L12.9921 10.1074C13.4422 10.2057 13.7937 10.5573 13.892 11.0074L14.107 12.0002L14.6872 9.31055Z" fill="#38B04A"/>
<path d="M11.9981 9.89258L11.004 10.1076C10.5539 10.2059 10.2024 10.5575 10.1042 11.0076L9.88916 12.0019L10.1042 12.9946C10.2024 13.4448 10.5539 13.7964 11.004 13.8946L11.9966 14.1097L12.9922 13.8932C13.4423 13.7949 13.7938 13.4433 13.892 12.9932L14.107 12.0004L13.8905 11.0076C13.7925 10.5579 13.4417 10.2064 12.9922 10.1076L11.9981 9.89258Z" fill="#04743B"/>
</svg>